<svg width="16" height="16" viewBox="0 0 16 16" fill="none" xmlns="http://www.w3.org/2000/svg">
<path d="M15.7241 13.2416H0.275874C0.123531 13.2416 0 13.118 0 12.9657V3.03466C0 2.88232 0.123531 2.75879 0.275874 2.75879H15.7241C15.8765 2.75879 16 2.88232 16 3.03466V12.9657C16 13.1181 15.8764 13.2416 15.7241 13.2416Z" fill="#F5F5F5"/>
<path d="M7.63867 11.2672C7.7913 11.1532 7.92392 11.1159 8.12911 11.0786C8.3344 11.0413 8.55118 10.9777 8.66487 10.947C8.77956 10.9153 8.27962 11.0983 8.15227 11.1345C8.02705 11.1728 7.63867 11.2672 7.63867 11.2672Z" fill="#73AF00"/>
<path d="M8.46468 10.9464C8.42362 10.6885 8.52568 10.417 8.75933 10.3086C8.81407 10.496 8.6467 10.8138 8.46468 10.9464Z" fill="#73AF00"/>
<path d="M8.86354 10.8126C8.73829 10.5969 8.94879 10.32 9.10561 10.1853C9.17823 10.3148 9.05085 10.701 8.86354 10.8126Z" fill="#73AF00"/>
<path d="M9.2306 10.6463C9.09798 10.4621 9.25588 10.14 9.42429 10.0127C9.48954 10.1948 9.42426 10.521 9.2306 10.6463Z" fill="#73AF00"/>
<path d="M9.59931 10.4148C9.47726 10.2411 9.56253 9.97168 9.73824 9.7959C9.86351 9.94118 9.75611 10.2548 9.59931 10.4148Z" fill="#73AF00"/>
<path d="M9.8953 10.1833C9.7932 10.0191 9.91839 9.62653 10.0826 9.51807C10.1531 9.66332 10.1005 10.0738 9.8953 10.1833Z" fill="#73AF00"/>
<path d="M10.1297 10.1212C10.1002 9.88653 10.5107 9.62657 10.6781 9.63394C10.6602 9.82544 10.4844 10.0359 10.1297 10.1212Z" fill="#73AF00"/>
<path d="M9.90039 10.3862C10.0941 10.1884 10.4677 10.1884 10.6003 10.2294C10.5656 10.3452 10.1236 10.5968 9.90039 10.3862Z" fill="#73AF00"/>
<path d="M9.63501 10.5851C9.90657 10.5125 10.0823 10.4535 10.2444 10.6219C10.1297 10.7672 9.68976 10.7241 9.63501 10.5851Z" fill="#73AF00"/>
<path d="M9.24786 10.7609C9.50783 10.6219 9.82252 10.8272 9.8699 10.9461C9.58046 11.0671 9.24258 10.7914 9.24786 10.7609Z" fill="#73AF00"/>
<path d="M8.89185 10.96C9.12866 10.8695 9.40022 10.9895 9.50756 11.1221C9.38125 11.1832 9.05075 11.2495 8.89185 10.96Z" fill="#73AF00"/>
<path d="M8.56763 11.0621C8.83919 11.0316 9.0991 11.2379 9.15597 11.3548C8.81069 11.3884 8.67706 11.2843 8.56763 11.0621Z" fill="#73AF00"/>
<path d="M8.48053 11.2672C8.33 11.1532 8.19741 11.1159 7.99216 11.0786C7.78688 11.0413 7.5701 10.9777 7.45438 10.947C7.34176 10.9153 7.84169 11.0983 7.969 11.1345C8.09528 11.1728 8.48053 11.2672 8.48053 11.2672Z" fill="#73AF00"/>
<path d="M7.65415 10.9464C7.69725 10.6885 7.59518 10.417 7.35944 10.3086C7.30681 10.496 7.47419 10.8138 7.65415 10.9464Z" fill="#73AF00"/>
<path d="M7.25741 10.8126C7.38478 10.5969 7.17215 10.32 7.01534 10.1853C6.94271 10.3148 7.07009 10.701 7.25741 10.8126Z" fill="#73AF00"/>
<path d="M6.88817 10.6463C7.02289 10.4621 6.86499 10.14 6.69658 10.0127C6.63033 10.1948 6.69661 10.521 6.88817 10.6463Z" fill="#73AF00"/>
<path d="M6.52066 10.4148C6.64169 10.2411 6.55753 9.97168 6.38278 9.7959C6.25756 9.94118 6.36491 10.2548 6.52066 10.4148Z" fill="#73AF00"/>
<path d="M6.22597 10.1833C6.33016 10.0191 6.20279 9.62653 6.0386 9.51807C5.96598 9.66332 6.0207 10.0738 6.22597 10.1833Z" fill="#73AF00"/>
<path d="M5.98915 10.1212C6.02074 9.88653 5.61024 9.62657 5.44287 9.63394C5.46078 9.82544 5.63343 10.0359 5.98915 10.1212Z" fill="#73AF00"/>
<path d="M6.22066 10.3862C6.02697 10.1884 5.65338 10.1884 5.52075 10.2294C5.55753 10.3452 5.99747 10.5968 6.22066 10.3862Z" fill="#73AF00"/>
<path d="M6.48587 10.5851C6.21431 10.5125 6.03856 10.4535 5.87646 10.6219C5.98909 10.7672 6.43112 10.7241 6.48587 10.5851Z" fill="#73AF00"/>
<path d="M6.87091 10.7609C6.61204 10.6219 6.29835 10.8272 6.25098 10.9461C6.54044 11.0671 6.87619 10.7914 6.87091 10.7609Z" fill="#73AF00"/>
<path d="M7.2259 10.96C6.99015 10.8695 6.71965 10.9895 6.6123 11.1221C6.73968 11.1832 7.07018 11.2495 7.2259 10.96Z" fill="#73AF00"/>
<path d="M7.55397 11.0621C7.28032 11.0316 7.02038 11.2379 6.9646 11.3548C7.31191 11.3884 7.44454 11.2843 7.55397 11.0621Z" fill="#73AF00"/>
<path d="M4.62385 7.16242C4.62385 7.16242 4.54847 7.26074 4.6765 7.50973C4.80453 7.75873 4.71257 8.04611 4.8505 8.13804C4.98844 8.22998 4.85628 8.41235 5.01431 8.53379C5.17231 8.65526 5.58759 8.93476 5.87422 8.96744C6.16084 9.0001 6.43928 8.71051 6.60466 8.92426C6.77003 9.13801 6.7339 9.28866 6.8899 9.30529C7.0459 9.32191 7.0459 9.25294 7.03444 9.14951C7.02297 9.04607 7.13784 8.75873 7.40222 8.75873C7.66659 8.75873 7.94665 8.72726 8.39284 8.55907C8.83903 8.39089 9.0574 8.31045 9.11487 8.04607C9.17234 7.7817 9.33574 7.46914 9.65059 7.61395C9.96546 7.75873 9.94427 7.69083 10.0411 7.62133C10.1378 7.55186 10.4624 7.75286 10.5357 7.64661C10.6091 7.54033 9.96146 7.01461 9.99796 6.73724C10.0344 6.4599 10.1217 6.22952 10.3884 6.20677C10.6551 6.18402 10.5861 5.88518 10.862 5.73574C11.1379 5.58634 11.2649 5.56921 11.483 5.34787C11.7011 5.12653 12.2745 4.67847 12.2745 4.67847C12.2745 4.67847 11.1589 5.21275 10.9357 5.26159C10.7126 5.31046 10.6206 5.63231 9.9999 5.80471C9.37918 5.97712 9.34471 6.04609 8.87346 6.14952C8.44906 6.24271 7.49034 6.21143 6.92322 6.02943C6.845 6.00434 6.76728 6.06612 6.77422 6.14796C6.79756 6.42361 6.791 6.91924 6.45622 6.99614C6.45622 6.99614 5.99988 6.65533 5.71253 6.80474C5.42519 6.95414 5.22081 7.48705 5.00691 7.40448C4.793 7.32189 4.765 6.97989 4.62385 7.16242Z" fill="#FFC850"/>
</svg>
